<svg width="48" height="48" viewBox="0 0 48 48" fill="none" xmlns="http://www.w3.org/2000/svg">
<path d="M14.8383 8.34657L17.1812 7.65766C18.2476 7.34354 19.3948 7.41906 20.4084 7.87011C21.422 8.32116 22.2329 9.11691 22.6896 10.1088L24.1475 13.2751C24.5404 14.1281 24.6498 15.0797 24.4605 15.9965C24.2712 16.9132 23.7926 17.7491 23.0919 18.3869L20.5444 20.7058C20.5139 20.7353 20.4882 20.7692 20.4682 20.8063C20.2014 21.3382 20.6065 22.7587 21.8753 24.9054C23.3064 27.3249 24.4115 28.2811 24.9238 28.1337L28.2672 27.1347C29.1829 26.8618 30.1631 26.8753 31.0704 27.1736C31.9778 27.4718 32.7668 28.0397 33.3269 28.7978L35.3987 31.5989C36.0492 32.4784 36.3505 33.5586 36.2467 34.6386C36.1428 35.7187 35.6409 36.7252 34.8342 37.4713L33.0517 39.1178C32.4318 39.691 31.6791 40.1093 30.8578 40.337C30.0365 40.5646 29.1709 40.595 28.335 40.4253C23.3713 39.4168 18.9242 35.5147 14.9555 28.8047C10.9854 22.0905 9.74763 16.3725 11.3424 11.6699C11.6094 10.8826 12.0666 10.1696 12.6753 9.59119C13.284 9.01275 14.025 8.58586 14.8383 8.34657ZM15.4523 10.3251C14.9642 10.4686 14.5188 10.7247 14.1535 11.0717C13.7882 11.4188 13.5138 11.8465 13.3536 12.3189C11.979 16.3711 13.0925 21.5187 16.7902 27.7713C20.4851 34.0198 24.4905 37.5333 28.7683 38.4013C29.2698 38.5029 29.7892 38.4846 30.2819 38.3478C30.7746 38.2111 31.2262 37.96 31.598 37.6159L33.3791 35.9708C33.8137 35.5692 34.0841 35.0272 34.1402 34.4456C34.1962 33.8641 34.0341 33.2824 33.684 32.8087L31.6121 30.0061C31.3106 29.5981 30.8858 29.2923 30.3974 29.1317C29.9089 28.9711 29.3812 28.9637 28.8882 29.1106L25.5363 30.1122C23.6818 30.651 21.9374 29.1422 20.0434 25.9374C18.4387 23.2258 17.8826 21.2665 18.5685 19.8983C18.7021 19.632 18.8799 19.3973 19.102 19.1943L21.6495 16.8754C22.0269 16.532 22.2847 16.0818 22.3867 15.5881C22.4888 15.0944 22.4298 14.5818 22.2182 14.1225L20.7589 10.9576C20.513 10.4233 20.0763 9.99474 19.5304 9.75184C18.9844 9.50893 18.3666 9.46833 17.7923 9.6376L15.4523 10.3251Z" fill="#2CA675"/>
</svg>
