<svg width="421" height="376" viewBox="0 0 421 376" fill="none" xmlns="http://www.w3.org/2000/svg">
<g clip-path="url(#clip0_443_5040)">
<path d="M224.899 375.882C212.452 375.882 200.006 375.408 187.601 376C174.435 376.631 167.703 365.825 172.064 355.216C200.217 286.318 228.032 217.302 255.932 148.326C274.221 103.13 292.51 57.9341 310.799 12.7384C315.033 2.24795 318.462 0.0394287 330.359 0.0394287C354.914 0.0394287 379.469 0.0394287 404.066 0.0394287C417.868 0.0394287 424.26 8.55799 419.392 20.6654C373.076 135.232 326.76 249.799 280.444 364.366C276.888 373.121 272.612 375.842 262.663 375.842C250.089 375.882 237.515 375.882 224.899 375.882Z" fill="url(#paint0_linear_443_5040)" fill-opacity="0.08"/>
<path d="M-18.9141 18.6935C-19.0835 6.38891 -15.3155 2.2085 -2.95337 0.552114C-0.582539 0.236612 1.87296 0.197174 4.28612 0.197174C28.8411 0.236612 53.4384 0.27605 77.9934 0.315487C90.4826 0.354925 96.1133 3.9832 100.728 14.9075C124.055 70.2387 147.382 125.609 170.752 180.941C173.927 188.434 177.187 195.888 180.362 203.381C182.903 209.375 183.326 215.409 180.913 221.562C169.228 251.416 157.628 281.31 145.943 311.125C141.879 321.497 137.603 331.751 133.411 342.083C133.073 342.872 132.734 343.661 132.311 344.41C130.321 347.999 128.966 352.377 123.335 352.18C117.789 351.943 114.53 348.551 112.624 344.174C106.994 331.199 101.532 318.184 96.198 305.13C61.5247 220.733 26.0046 136.613 -7.94904 51.9001C-11.2936 43.5788 -14.4688 35.1785 -17.6017 26.7783C-18.6178 23.9387 -19.2528 21.0203 -18.9141 18.6935Z" fill="url(#paint1_linear_443_5040)" fill-opacity="0.08"/>
</g>
<defs>
<linearGradient id="paint0_linear_443_5040" x1="295.876" y1="0.0394287" x2="295.876" y2="376.026" gradientUnits="userSpaceOnUse">
<stop stop-color="white"/>
<stop offset="1" stop-color="#999999"/>
</linearGradient>
<linearGradient id="paint1_linear_443_5040" x1="183.001" y1="176.192" x2="37.501" y2="176.192" gradientUnits="userSpaceOnUse">
<stop stop-color="#999999"/>
<stop offset="1"/>
</linearGradient>
<clipPath id="clip0_443_5040">
<rect width="440" height="376" fill="white" transform="translate(-19)"/>
</clipPath>
</defs>
</svg>
