<svg width="48" height="48" viewBox="0 0 48 48" fill="none" xmlns="http://www.w3.org/2000/svg">
<path d="M13.5861 11.7334H35.4808C36.8209 11.7334 38.106 12.2728 39.0536 13.233C40.0011 14.1932 40.5334 15.4955 40.5334 16.8534V32.2134C40.5334 33.5713 40.0011 34.8736 39.0536 35.8338C38.106 36.794 36.8209 37.3334 35.4808 37.3334H13.5861C12.246 37.3334 10.9609 36.794 10.0133 35.8338C9.06578 34.8736 8.53345 33.5713 8.53345 32.2134V16.8534C8.53345 15.4955 9.06578 14.1932 10.0133 13.233C10.9609 12.2728 12.246 11.7334 13.5861 11.7334ZM13.5861 13.4401C12.744 13.4401 12.0029 13.7302 11.4303 14.2422L24.5334 22.8267L37.6366 14.2422C37.064 13.7302 36.3229 13.4401 35.4808 13.4401H13.5861ZM24.5334 24.8918L10.4366 15.6246C10.3019 16.0001 10.2177 16.4267 10.2177 16.8534V32.2134C10.2177 33.1187 10.5725 33.9869 11.2042 34.627C11.8359 35.2671 12.6927 35.6267 13.5861 35.6267H35.4808C36.3742 35.6267 37.2309 35.2671 37.8626 34.627C38.4944 33.9869 38.8492 33.1187 38.8492 32.2134V16.8534C38.8492 16.4267 38.765 16.0001 38.6303 15.6246L24.5334 24.8918Z" fill="#33BE86"/>
</svg>
