<svg width="48" height="48" viewBox="0 0 48 48" fill="none" xmlns="http://www.w3.org/2000/svg">
<path d="M23.8 40.5332C29.9112 31.9178 34.8 24.5332 34.8 19.6101C34.8 16.6723 33.6411 13.8549 31.5782 11.7776C29.5153 9.70023 26.7174 8.5332 23.8 8.5332C20.8827 8.5332 18.0848 9.70023 16.0219 11.7776C13.959 13.8549 12.8 16.6723 12.8 19.6101C12.8 24.5332 17.6889 31.9178 23.8 40.5332Z" stroke="#33BE86" stroke-width="1.6"/>
<path d="M28.6884 19.6101C28.6884 20.9158 28.1733 22.168 27.2565 23.0912C26.3397 24.0145 25.0961 24.5332 23.7995 24.5332C22.5029 24.5332 21.2594 24.0145 20.3426 23.0912C19.4257 22.168 18.9106 20.9158 18.9106 19.6101C18.9106 18.3044 19.4257 17.0522 20.3426 16.1289C21.2594 15.2057 22.5029 14.687 23.7995 14.687C25.0961 14.687 26.3397 15.2057 27.2565 16.1289C28.1733 17.0522 28.6884 18.3044 28.6884 19.6101Z" stroke="#33BE86" stroke-width="1.6"/>
</svg>
