<svg width="16" height="16" viewBox="0 0 16 16" fill="none" xmlns="http://www.w3.org/2000/svg">
<path d="M1.33325 13.3333V7.99996C1.33325 7.64634 1.47373 7.3072 1.72378 7.05715C1.97382 6.8071 2.31296 6.66663 2.66659 6.66663H13.3333C13.6869 6.66663 14.026 6.8071 14.2761 7.05715C14.5261 7.3072 14.6666 7.64634 14.6666 7.99996V13.3333" stroke="#62748E" stroke-width="1.33333" stroke-linecap="round" stroke-linejoin="round"/>
<path d="M2.66675 6.66663V3.99996C2.66675 3.64634 2.80722 3.3072 3.05727 3.05715C3.30732 2.8071 3.64646 2.66663 4.00008 2.66663H12.0001C12.3537 2.66663 12.6928 2.8071 12.9429 3.05715C13.1929 3.3072 13.3334 3.64634 13.3334 3.99996V6.66663" stroke="#62748E" stroke-width="1.33333" stroke-linecap="round" stroke-linejoin="round"/>
<path d="M8 2.66663V6.66663" stroke="#62748E" stroke-width="1.33333" stroke-linecap="round" stroke-linejoin="round"/>
<path d="M1.33325 12H14.6666" stroke="#62748E" stroke-width="1.33333" stroke-linecap="round" stroke-linejoin="round"/>
</svg>
