<svg width="21" height="21" viewBox="0 0 21 21" fill="none" xmlns="http://www.w3.org/2000/svg">
<path d="M2.50391 11.9219L10.6782 3.74764C11.1018 3.31496 11.6071 2.97058 12.1648 2.73444C12.7224 2.49829 13.3214 2.37507 13.9269 2.37189C14.5325 2.36871 15.1327 2.48564 15.6928 2.71592C16.2529 2.9462 16.7618 3.28525 17.19 3.71346C17.6182 4.14167 17.9572 4.65054 18.1875 5.21064C18.4178 5.77073 18.5347 6.37092 18.5315 6.9765C18.5284 7.58207 18.4051 8.181 18.169 8.73865C17.9328 9.29629 17.5885 9.80158 17.1558 10.2253L9.52053 17.8588C9.04753 18.3164 8.41361 18.5699 7.75546 18.5645C7.09732 18.559 6.46766 18.2952 6.00226 17.8298C5.53687 17.3644 5.27301 16.7347 5.26759 16.0766C5.26217 15.4184 5.51561 14.7845 5.97328 14.3115L13.2988 6.98514" stroke="white" stroke-width="1.5" stroke-linecap="round" stroke-linejoin="round"/>
</svg>
