<svg width="28" height="28" viewBox="0 0 28 28" fill="none" xmlns="http://www.w3.org/2000/svg">
<path d="M17.4998 2.33331H6.99984C6.381 2.33331 5.78751 2.57915 5.34992 3.01673C4.91234 3.45432 4.6665 4.04781 4.6665 4.66665V23.3333C4.6665 23.9522 4.91234 24.5456 5.34992 24.9832C5.78751 25.4208 6.381 25.6666 6.99984 25.6666H20.9998C21.6187 25.6666 22.2122 25.4208 22.6498 24.9832C23.0873 24.5456 23.3332 23.9522 23.3332 23.3333V8.16665L17.4998 2.33331Z" stroke="#9810FA" stroke-width="2.33333" stroke-linecap="round" stroke-linejoin="round"/>
<path d="M16.3335 2.33331V6.99998C16.3335 7.61882 16.5793 8.21231 17.0169 8.6499C17.4545 9.08748 18.048 9.33331 18.6668 9.33331H23.3335" stroke="#9810FA" stroke-width="2.33333" stroke-linecap="round" stroke-linejoin="round"/>
<path d="M11.6668 10.5H9.3335" stroke="#9810FA" stroke-width="2.33333" stroke-linecap="round" stroke-linejoin="round"/>
<path d="M18.6668 15.1667H9.3335" stroke="#9810FA" stroke-width="2.33333" stroke-linecap="round" stroke-linejoin="round"/>
<path d="M18.6668 19.8333H9.3335" stroke="#9810FA" stroke-width="2.33333" stroke-linecap="round" stroke-linejoin="round"/>
</svg>
