<svg width="20" height="20" viewBox="0 0 20 20" fill="none" xmlns="http://www.w3.org/2000/svg">
<path d="M12.2491 5.25C12.0965 5.40578 12.0109 5.61521 12.0109 5.83334C12.0109 6.05146 12.0965 6.2609 12.2491 6.41667L13.5825 7.75C13.7383 7.90269 13.9477 7.98822 14.1658 7.98822C14.3839 7.98822 14.5934 7.90269 14.7491 7.75L17.8908 4.60834C18.3098 5.53433 18.4367 6.56603 18.2545 7.56596C18.0723 8.56588 17.5897 9.48654 16.871 10.2052C16.1524 10.9239 15.2317 11.4065 14.2318 11.5887C13.2318 11.7709 12.2001 11.644 11.2741 11.225L5.51581 16.9833C5.18429 17.3149 4.73465 17.5011 4.26581 17.5011C3.79697 17.5011 3.34733 17.3149 3.01581 16.9833C2.68429 16.6518 2.49805 16.2022 2.49805 15.7333C2.49805 15.2645 2.68429 14.8149 3.01581 14.4833L8.77415 8.725C8.35512 7.79901 8.22824 6.76731 8.41043 5.76738C8.59262 4.76746 9.07522 3.8468 9.79391 3.1281C10.5126 2.40941 11.4333 1.92681 12.4332 1.74462C13.4331 1.56243 14.4648 1.68931 15.3908 2.10834L12.2575 5.24167L12.2491 5.25Z" stroke="#155DFC" stroke-width="1.66667" stroke-linecap="round" stroke-linejoin="round"/>
</svg>
