<svg width="28" height="28" viewBox="0 0 28 28" fill="none" xmlns="http://www.w3.org/2000/svg">
<path d="M18.6668 24.5V22.1667C18.6668 20.929 18.1752 19.742 17.3 18.8668C16.4248 17.9917 15.2378 17.5 14.0002 17.5H7.00016C5.76249 17.5 4.5755 17.9917 3.70033 18.8668C2.82516 19.742 2.3335 20.929 2.3335 22.1667V24.5" stroke="#F54900" stroke-width="2.33333" stroke-linecap="round" stroke-linejoin="round"/>
<path d="M10.5002 12.8333C13.0775 12.8333 15.1668 10.744 15.1668 8.16667C15.1668 5.58934 13.0775 3.5 10.5002 3.5C7.92283 3.5 5.8335 5.58934 5.8335 8.16667C5.8335 10.744 7.92283 12.8333 10.5002 12.8333Z" stroke="#F54900" stroke-width="2.33333" stroke-linecap="round" stroke-linejoin="round"/>
<path d="M25.6665 24.5V22.1667C25.6657 21.1327 25.3216 20.1282 24.6881 19.311C24.0546 18.4938 23.1677 17.9102 22.1665 17.6517" stroke="#F54900" stroke-width="2.33333" stroke-linecap="round" stroke-linejoin="round"/>
<path d="M18.6665 3.65167C19.6703 3.90869 20.56 4.49249 21.1954 5.31103C21.8308 6.12958 22.1757 7.13631 22.1757 8.17251C22.1757 9.2087 21.8308 10.2154 21.1954 11.034C20.56 11.8525 19.6703 12.4363 18.6665 12.6933" stroke="#F54900" stroke-width="2.33333" stroke-linecap="round" stroke-linejoin="round"/>
</svg>
