<svg width="28" height="28" viewBox="0 0 28 28" fill="none" xmlns="http://www.w3.org/2000/svg">
<path d="M12.834 19.8334L15.1673 22.1667C15.3971 22.3965 15.67 22.5788 15.9702 22.7032C16.2705 22.8275 16.5923 22.8916 16.9173 22.8916C17.2423 22.8916 17.5641 22.8275 17.8644 22.7032C18.1647 22.5788 18.4375 22.3965 18.6673 22.1667C18.8971 21.9369 19.0794 21.664 19.2038 21.3638C19.3282 21.0635 19.3922 20.7417 19.3922 20.4167C19.3922 20.0917 19.3282 19.7699 19.2038 19.4696C19.0794 19.1693 18.8971 18.8965 18.6673 18.6667" stroke="#155DFC" stroke-width="2.33333" stroke-linecap="round" stroke-linejoin="round"/>
<path d="M16.3336 16.3333L19.2503 19.25C19.7144 19.7141 20.3439 19.9749 21.0003 19.9749C21.6566 19.9749 22.2861 19.7141 22.7503 19.25C23.2144 18.7858 23.4751 18.1564 23.4751 17.5C23.4751 16.8436 23.2144 16.2141 22.7503 15.75L18.2236 11.2233C17.5673 10.5679 16.6778 10.1997 15.7503 10.1997C14.8228 10.1997 13.9332 10.5679 13.2769 11.2233L12.2503 12.25C11.7861 12.7141 11.1566 12.9749 10.5003 12.9749C9.84389 12.9749 9.21439 12.7141 8.75026 12.25C8.28614 11.7858 8.02539 11.1564 8.02539 10.5C8.02539 9.8436 8.28614 9.21411 8.75026 8.74998L12.0286 5.47164C13.0929 4.41015 14.4808 3.73395 15.9727 3.55011C17.4646 3.36627 18.9751 3.68528 20.2653 4.45664L20.8136 4.78331C21.3104 5.08313 21.901 5.18711 22.4703 5.07498L24.5003 4.66664" stroke="#155DFC" stroke-width="2.33333" stroke-linecap="round" stroke-linejoin="round"/>
<path d="M24.5007 3.5L25.6673 16.3333H23.334" stroke="#155DFC" stroke-width="2.33333" stroke-linecap="round" stroke-linejoin="round"/>
<path d="M3.50065 3.5L2.33398 16.3333L9.91732 23.9167C10.3814 24.3808 11.0109 24.6415 11.6673 24.6415C12.3237 24.6415 12.9532 24.3808 13.4173 23.9167C13.8814 23.4525 14.1422 22.823 14.1422 22.1667C14.1422 21.5103 13.8814 20.8808 13.4173 20.4167" stroke="#155DFC" stroke-width="2.33333" stroke-linecap="round" stroke-linejoin="round"/>
<path d="M3.5 4.66669H12.8333" stroke="#155DFC" stroke-width="2.33333" stroke-linecap="round" stroke-linejoin="round"/>
</svg>
