<svg width="34" height="35" viewBox="0 0 34 35" fill="none" xmlns="http://www.w3.org/2000/svg">
<path d="M1.66675 14.9991C1.66663 14.5142 1.7723 14.0352 1.97639 13.5953C2.18048 13.1555 2.47808 12.7654 2.84841 12.4525L14.5151 2.45412C15.1167 1.94564 15.879 1.66666 16.6667 1.66666C17.4545 1.66666 18.2168 1.94564 18.8184 2.45412L30.4851 12.4525C30.8554 12.7654 31.153 13.1555 31.3571 13.5953C31.5612 14.0352 31.6669 14.5142 31.6667 14.9991V29.9991C31.6667 30.8832 31.3156 31.731 30.6904 32.3561C30.0653 32.9813 29.2175 33.3325 28.3334 33.3325H5.00008C4.11603 33.3325 3.26818 32.9813 2.64306 32.3561C2.01794 31.731 1.66675 30.8832 1.66675 29.9991V14.9991Z" stroke="#155DFC" stroke-width="3.33333" stroke-linecap="round" stroke-linejoin="round"/>
</svg>
