<svg width="32" height="32" viewBox="0 0 32 32" fill="none" xmlns="http://www.w3.org/2000/svg">
<path d="M20.0007 2.66669H8.00065C7.29341 2.66669 6.61513 2.94764 6.11503 3.44774C5.61494 3.94783 5.33398 4.62611 5.33398 5.33335V26.6667C5.33398 27.3739 5.61494 28.0522 6.11503 28.5523C6.61513 29.0524 7.29341 29.3334 8.00065 29.3334H24.0007C24.7079 29.3334 25.3862 29.0524 25.8863 28.5523C26.3864 28.0522 26.6673 27.3739 26.6673 26.6667V9.33335L20.0007 2.66669Z" stroke="#155DFC" stroke-width="2.66667" stroke-linecap="round" stroke-linejoin="round"/>
<path d="M18.666 2.66669V8.00002C18.666 8.70726 18.947 9.38554 19.4471 9.88564C19.9472 10.3857 20.6254 10.6667 21.3327 10.6667H26.666" stroke="#155DFC" stroke-width="2.66667" stroke-linecap="round" stroke-linejoin="round"/>
<path d="M13.3327 12H10.666" stroke="#155DFC" stroke-width="2.66667" stroke-linecap="round" stroke-linejoin="round"/>
<path d="M21.3327 17.3333H10.666" stroke="#155DFC" stroke-width="2.66667" stroke-linecap="round" stroke-linejoin="round"/>
<path d="M21.3327 22.6667H10.666" stroke="#155DFC" stroke-width="2.66667" stroke-linecap="round" stroke-linejoin="round"/>
</svg>
