<svg width="20" height="20" viewBox="0 0 20 20" fill="none" xmlns="http://www.w3.org/2000/svg">
<path fill-rule="evenodd" clip-rule="evenodd" d="M7.05305 2.15812L14.2961 9.41412C14.3612 9.47642 14.413 9.55142 14.4481 9.63449C14.4832 9.71757 14.5008 9.80695 14.5001 9.89712C14.5005 9.98932 14.4826 10.0807 14.4476 10.166C14.4126 10.2513 14.3611 10.3288 14.2961 10.3941C11.6761 12.9501 9.15105 15.4171 6.72105 17.7951C6.59605 17.9121 6.09605 18.2031 5.71005 17.7711C5.32405 17.3381 5.55805 16.9611 5.71005 16.8051L12.7781 9.89712L6.03105 3.13812C5.78505 2.79879 5.80505 2.48579 6.09105 2.19912C6.37772 1.91245 6.69838 1.89812 7.05305 2.15812Z" fill="#33BE86"/>
</svg>
