<svg width="63" height="63" viewBox="0 0 63 63" fill="none" xmlns="http://www.w3.org/2000/svg">
<g clip-path="url(#clip0_278_5339)">
<mask id="mask0_278_5339" style="mask-type:luminance" maskUnits="userSpaceOnUse" x="0" y="0" width="63" height="63">
<path d="M0 0H63V63H0V0Z" fill="white"/>
</mask>
<g mask="url(#mask0_278_5339)">
<path fill-rule="evenodd" clip-rule="evenodd" d="M14.1317 38.0756C11.7832 37.4941 9.69715 36.1428 8.2063 34.2373C6.71545 32.3318 5.9057 29.9819 5.90625 27.5625V26.5781C5.90625 23.7063 7.04707 20.9522 9.07773 18.9215C11.1084 16.8908 13.8626 15.75 16.7344 15.75H17.7188C20.5277 15.7475 23.2275 16.8378 25.2469 18.7904C27.2664 20.7429 28.447 23.4045 28.539 26.2119V26.2237H28.5469V27.5625C28.5469 28.0796 28.5114 28.5863 28.4406 29.0824C28.3618 30.1114 28.2437 31.122 28.0862 32.1143C27.6709 34.7137 26.9315 37.2509 25.8851 39.6664C24.0091 43.9936 21.0831 47.7843 17.3723 50.6953L16.9864 50.9946C16.8233 51.1187 16.6243 51.1864 16.4194 51.1875C16.2499 51.1869 16.0835 51.1425 15.9363 51.0587C15.789 50.975 15.6659 50.8546 15.5787 50.7093C15.4916 50.5639 15.4435 50.3986 15.439 50.2292C15.4345 50.0598 15.4738 49.8922 15.5531 49.7424C16.4876 47.9652 17.3415 46.1469 18.1125 44.2929C18.8882 42.4266 19.6718 40.3042 20.3057 38.0796C19.4594 38.2889 18.5906 38.3934 17.7188 38.3906H16.7344C15.834 38.388 14.9664 38.283 14.1317 38.0756ZM11.97 43.6078C8.51191 42.5808 5.47828 40.4638 3.32124 37.5723C1.1642 34.6809 -0.000752153 31.1699 3.64344e-07 27.5625V26.5781C3.64344e-07 22.1399 1.76308 17.8834 4.90139 14.7451C8.03969 11.6068 12.2961 9.84375 16.7344 9.84375H17.7188C23.436 9.84375 28.4799 12.7102 31.5 17.0809C33.0389 14.8483 35.0973 13.0231 37.4979 11.7624C39.8986 10.5017 42.5697 9.84327 45.2812 9.84375H46.2656C50.6458 9.84285 54.8517 11.5594 57.9805 14.6248C61.1092 17.6903 62.9114 21.8602 63 26.2395V27.5625C63 28.2844 62.9541 28.9971 62.8622 29.7006C62.0471 40.0168 57.5151 49.2542 49.1282 55.6841C47.9333 56.5982 46.4707 57.0936 44.9663 57.0938C39.6861 57.0938 36.5164 51.4828 38.871 46.998C39.3081 46.1672 39.8947 44.9977 40.5169 43.6118C37.4513 42.6989 34.7116 40.9266 32.6222 38.5048C30.4896 45.3425 26.2813 51.3468 20.5813 55.6841C19.3864 56.5982 17.9238 57.0936 16.4194 57.0938C11.1392 57.0938 7.9695 51.4828 10.3241 46.998C10.7612 46.1672 11.3479 44.9977 11.97 43.6118M42.6825 38.0756C43.5173 38.283 44.3848 38.388 45.2852 38.3906H46.2696C47.1411 38.3896 48.0095 38.2851 48.8565 38.0796C48.1389 40.5876 47.2441 43.0416 46.179 45.423C45.5362 46.8858 44.8441 48.3264 44.1039 49.7424C44.0246 49.8922 43.9853 50.0598 43.9898 50.2292C43.9943 50.3986 44.0424 50.5639 44.1296 50.7093C44.2167 50.8546 44.3398 50.975 44.4871 51.0587C44.6344 51.1425 44.8008 51.1869 44.9702 51.1875C45.1751 51.1864 45.3741 51.1187 45.5372 50.9946L45.9231 50.6953C47.1096 49.7556 48.2016 48.7476 49.1991 47.6713C51.5232 45.1732 53.3773 42.276 54.6722 39.1191C55.5941 36.8677 56.2521 34.5171 56.6331 32.1143C56.796 31.1092 56.9155 30.0977 56.9914 29.0824C57.0622 28.5836 57.0977 28.077 57.0977 27.5625V26.2277H57.0938V26.2119C57.0017 23.4031 55.82 20.7404 53.7989 18.7876C51.7778 16.8349 49.076 15.7454 46.2656 15.75H45.2773C42.4055 15.75 39.6513 16.8908 37.6207 18.9215C35.59 20.9522 34.4492 23.7063 34.4492 26.5781V27.5625C34.4492 32.6419 37.9536 36.9101 42.6746 38.0756" fill="#40C28E"/>
</g>
</g>
<defs>
<clipPath id="clip0_278_5339">
<rect width="63" height="63" fill="white"/>
</clipPath>
</defs>
</svg>
