<svg width="48" height="48" viewBox="0 0 48 48" fill="none" xmlns="http://www.w3.org/2000/svg">
<path d="M30.9535 25.78L33.9835 42.832C34.0174 43.0328 33.9893 43.2392 33.9028 43.4235C33.8162 43.6078 33.6755 43.7614 33.4994 43.8636C33.3232 43.9658 33.1201 44.0118 32.9171 43.9954C32.7141 43.979 32.521 43.9011 32.3635 43.772L25.2035 38.398C24.8579 38.1398 24.438 38.0002 24.0065 38.0002C23.575 38.0002 23.1552 38.1398 22.8095 38.398L15.6375 43.77C15.4801 43.8989 15.2872 43.9767 15.0845 43.9931C14.8818 44.0095 14.6788 43.9637 14.5028 43.8617C14.3268 43.7598 14.1861 43.6067 14.0993 43.4227C14.0126 43.2387 13.9841 43.0326 14.0175 42.832L17.0455 25.78" stroke="#9810FA" stroke-width="4" stroke-linecap="round" stroke-linejoin="round"/>
<path d="M24 28C30.6274 28 36 22.6274 36 16C36 9.37258 30.6274 4 24 4C17.3726 4 12 9.37258 12 16C12 22.6274 17.3726 28 24 28Z" stroke="#9810FA" stroke-width="4" stroke-linecap="round" stroke-linejoin="round"/>
</svg>
