<svg width="78" height="78" viewBox="0 0 78 78" fill="none" xmlns="http://www.w3.org/2000/svg">
<path fill-rule="evenodd" clip-rule="evenodd" d="M37.8625 24.375C37.4742 24.3749 37.0987 24.5139 36.804 24.7667C36.5093 25.0196 36.3149 25.3696 36.256 25.7534C36.1971 26.1372 36.2775 26.5294 36.4828 26.859C36.6881 27.1886 37.0046 27.4338 37.375 27.5503V29.081C36.2697 29.2976 35.2189 29.7329 34.2842 30.3615L33.3352 29.4125C33.6301 29.1046 33.7922 28.6932 33.7865 28.267C33.7808 27.8407 33.6079 27.4338 33.305 27.1338C33.0021 26.8339 32.5934 26.665 32.1671 26.6636C31.7408 26.6621 31.3311 26.8282 31.0261 27.1261L28.7511 29.4011C28.4532 29.7061 28.2871 30.1158 28.2886 30.5421C28.29 30.9684 28.4589 31.3771 28.7588 31.68C29.0588 31.9829 29.4657 32.1558 29.892 32.1615C30.3182 32.1672 30.7296 32.0051 31.0375 31.7102L31.9865 32.6592C31.3579 33.5939 30.9226 34.6447 30.706 35.75H29.1753C29.0588 35.3796 28.8136 35.0631 28.484 34.8578C28.1544 34.6525 27.7622 34.5721 27.3784 34.631C26.9946 34.6899 26.6446 34.8843 26.3917 35.179C26.1389 35.4737 25.9999 35.8492 26 36.2375V38.5125C25.9999 38.9008 26.1389 39.2763 26.3917 39.571C26.6446 39.8657 26.9946 40.0601 27.3784 40.119C27.7622 40.1779 28.1544 40.0975 28.484 39.8922C28.8136 39.6869 29.0588 39.3704 29.1753 39H30.706C30.9226 40.1053 31.3579 41.1561 31.9865 42.0908L31.0375 43.0397C30.7296 42.7449 30.3182 42.5828 29.892 42.5885C29.4657 42.5942 29.0588 42.7671 28.7588 43.07C28.4589 43.3729 28.29 43.7816 28.2886 44.2079C28.2871 44.6342 28.4532 45.0439 28.7511 45.3489L31.0261 47.6239C31.3311 47.9218 31.7408 48.0879 32.1671 48.0864C32.5934 48.085 33.0021 47.9161 33.305 47.6162C33.6079 47.3162 33.7808 46.9093 33.7865 46.483C33.7922 46.0568 33.6301 45.6454 33.3352 45.3375L34.2842 44.3885C35.2189 45.0171 36.2697 45.4524 37.375 45.669V47.1997C37.0046 47.3162 36.6881 47.5614 36.4828 47.891C36.2775 48.2206 36.1971 48.6128 36.256 48.9966C36.3149 49.3804 36.5093 49.7304 36.804 49.9833C37.0987 50.2361 37.4742 50.3751 37.8625 50.375H40.1375C40.5258 50.3751 40.9013 50.2361 41.196 49.9833C41.4907 49.7304 41.6851 49.3804 41.744 48.9966C41.8029 48.6128 41.7225 48.2206 41.5172 47.891C41.3119 47.5614 40.9954 47.3162 40.625 47.1997V45.669C41.9996 45.3995 43.2856 44.7925 44.3674 43.9026L45.8023 45.3375C45.5074 45.6454 45.3453 46.0568 45.351 46.483C45.3567 46.9093 45.5296 47.3162 45.8325 47.6162C46.1354 47.9161 46.5441 48.085 46.9704 48.0864C47.3967 48.0879 47.8064 47.9218 48.1114 47.6239L50.3864 45.3489C50.6843 45.0439 50.8504 44.6342 50.8489 44.2079C50.8475 43.7816 50.6786 43.3729 50.3787 43.07C50.0787 42.7671 49.6718 42.5942 49.2455 42.5885C48.8193 42.5828 48.4079 42.7449 48.1 43.0397L46.4425 41.3822C46.839 40.6461 47.1299 39.845 47.294 39H48.8247C48.9412 39.3704 49.1864 39.6869 49.516 39.8922C49.8456 40.0975 50.2378 40.1779 50.6216 40.119C51.0054 40.0601 51.3554 39.8657 51.6083 39.571C51.8611 39.2763 52.0001 38.9008 52 38.5125V36.2375C52.0001 35.8492 51.8611 35.4737 51.6083 35.179C51.3554 34.8843 51.0054 34.6899 50.6216 34.631C50.2378 34.5721 49.8456 34.6525 49.516 34.8578C49.1864 35.0631 48.9412 35.3796 48.8247 35.75H47.294C47.0774 34.6447 46.6421 33.5939 46.0135 32.6592L46.9625 31.7102C47.2704 32.0051 47.6818 32.1672 48.108 32.1615C48.5343 32.1558 48.9412 31.9829 49.2412 31.68C49.5411 31.3771 49.71 30.9684 49.7114 30.5421C49.7129 30.1158 49.5468 29.7061 49.2489 29.4011L46.9739 27.1261C46.6689 26.8282 46.2592 26.6621 45.8329 26.6636C45.4066 26.665 44.9979 26.8339 44.695 27.1338C44.3921 27.4338 44.2192 27.8407 44.2135 28.267C44.2078 28.6932 44.3699 29.1046 44.6647 29.4125L43.7158 30.3615C42.7811 29.7329 41.7303 29.2976 40.625 29.081V27.5503C40.9954 27.4338 41.3119 27.1886 41.5172 26.859C41.7225 26.5294 41.8029 26.1372 41.744 25.7534C41.6851 25.3696 41.4907 25.0196 41.196 24.7667C40.9013 24.5139 40.5258 24.3749 40.1375 24.375H37.8625ZM39 42.575C38.3171 42.575 37.6409 42.4405 37.01 42.1792C36.3792 41.9179 35.8059 41.5348 35.323 41.052C34.8402 40.5691 34.4571 39.9958 34.1958 39.365C33.9345 38.7341 33.8 38.0579 33.8 37.375C33.8 36.6921 33.9345 36.0159 34.1958 35.385C34.4571 34.7542 34.8402 34.1809 35.323 33.698C35.8059 33.2152 36.3792 32.8321 37.01 32.5708C37.6409 32.3095 38.3171 32.175 39 32.175C40.3791 32.175 41.7018 32.7229 42.677 33.698C43.6521 34.6732 44.2 35.9959 44.2 37.375C44.2 38.7541 43.6521 40.0768 42.677 41.052C41.7018 42.0271 40.3791 42.575 39 42.575Z" fill="white"/>
<path fill-rule="evenodd" clip-rule="evenodd" d="M61.8459 14.331C54.6297 11.2392 46.8503 9.67935 39 9.75011C31.1496 9.67987 23.3702 11.2403 16.1541 14.3326L16.1297 14.344C15.1952 14.7618 14.4013 15.4406 13.8434 16.2989C13.2863 17.1536 12.993 18.1533 13 19.1735V37.8642C13 42.671 14.0709 48.391 17.4882 53.7974C20.917 59.2216 26.637 64.2136 35.7337 67.6537C37.839 68.4471 40.161 68.4471 42.2662 67.6537C51.3614 64.2185 57.0798 59.2054 60.5085 53.7714C63.9275 48.3552 65 42.632 65 37.8642V19.1751C65.0068 18.1542 64.7129 17.1539 64.155 16.2989C63.5975 15.4408 62.8042 14.762 61.8703 14.344L61.8459 14.331ZM20.2361 52.0602C17.2152 47.2827 16.25 42.2014 16.25 37.8642V19.1686H14.625L16.25 19.1572C16.2467 18.7737 16.3572 18.3935 16.5701 18.0669C16.7814 17.7419 17.0852 17.477 17.4492 17.3112C24.2523 14.3998 31.5858 12.9323 38.9854 13.0017H39.0146C46.4142 12.9323 53.7477 14.3998 60.5508 17.3112C60.9147 17.477 61.2186 17.7402 61.4282 18.0652C61.6427 18.3935 61.7533 18.7721 61.75 19.1572V37.8626C61.75 42.1575 60.7831 47.2454 57.7606 52.0359C54.7479 56.8085 49.6259 61.3991 41.1174 64.6134C39.7525 65.1269 38.2475 65.1269 36.8826 64.6134C28.3676 61.3926 23.2456 56.8215 20.2361 52.0602Z" fill="white"/>
</svg>
