<svg width="54" height="54" viewBox="0 0 54 54" fill="none" xmlns="http://www.w3.org/2000/svg">
<g clip-path="url(#clip0_249_3218)">
<path d="M27 0C12.0781 0 0 12.0758 0 27C0 41.9219 12.0758 54 27 54C41.9221 54 54 41.9241 54 27C54 12.078 41.9242 0 27 0ZM27 50.8235C13.8637 50.8235 3.17647 40.1363 3.17647 27C3.17647 13.8637 13.8637 3.17647 27 3.17647C40.1363 3.17647 50.8235 13.8637 50.8235 27C50.8235 40.1363 40.1363 50.8235 27 50.8235Z" fill="white"/>
<path d="M11.1177 27.0001C11.1177 34.0061 16.8175 39.706 23.8236 39.706V36.5295C18.569 36.5295 14.2941 32.2546 14.2941 27.0001C14.2941 21.7456 18.569 17.4707 23.8236 17.4707V14.2942C16.8175 14.2942 11.1177 19.9939 11.1177 27.0001Z" fill="white"/>
<path d="M27 27.0001C27 34.0061 32.6999 39.706 39.7059 39.706V36.5295C34.9924 36.5295 31.068 33.0895 30.3096 28.5883H39.7059V25.4118H30.3096C31.068 20.9107 34.9925 17.4707 39.7059 17.4707V14.2942C32.6999 14.2942 27 19.9939 27 27.0001Z" fill="white"/>
</g>
<defs>
<clipPath id="clip0_249_3218">
<rect width="54" height="54" fill="white"/>
</clipPath>
</defs>
</svg>
