<svg width="77" height="77" viewBox="0 0 77 77" fill="none" xmlns="http://www.w3.org/2000/svg">
<path d="M64.1667 33.3905L38.5 7.72388L9.625 36.5989H16.0417V59.0572C16.0417 60.759 16.7177 62.3911 17.9211 63.5945C19.1244 64.7978 20.7565 65.4739 22.4583 65.4739H38.5" stroke="white" stroke-width="3" stroke-linecap="round" stroke-linejoin="round"/>
<path d="M28.875 65.4738V46.2238C28.875 44.522 29.551 42.8899 30.7544 41.6865C31.9578 40.4832 33.5899 39.8071 35.2917 39.8071H41.7083C42.751 39.8071 43.7328 40.0542 44.6023 40.4969M51.3333 68.6821C51.3333 68.6821 51.3333 62.2655 60.9583 55.8488" stroke="white" stroke-width="3" stroke-linecap="round" stroke-linejoin="round"/>
<path d="M60.9584 65.4739C58.4057 65.4739 55.9575 64.4598 54.1525 62.6548C52.3474 60.8497 51.3334 58.4016 51.3334 55.8489C51.3334 53.2962 52.3474 50.848 54.1525 49.043C55.9575 47.2379 58.4057 46.2239 60.9584 46.2239H70.5834V55.8489C70.5834 58.4016 69.5693 60.8497 67.7643 62.6548C65.9592 64.4598 63.5111 65.4739 60.9584 65.4739Z" stroke="white" stroke-width="3" stroke-linecap="round" stroke-linejoin="round"/>
</svg>
