<svg width="56" height="56" viewBox="0 0 56 56" fill="none" xmlns="http://www.w3.org/2000/svg">
<path d="M48.9194 33.3364L48.8795 32.7884C48.2381 24.4375 44.3497 19.2025 40.9194 14.5849C37.743 10.3092 34.9997 6.61682 34.9997 1.16872C34.9997 0.731238 34.7547 0.331378 34.3662 0.130792C33.9765 -0.0708882 33.5083 -0.0378582 33.1541 0.21971C28.0023 3.90639 23.7038 10.1201 22.2022 16.0489C21.1598 20.1765 21.0219 24.8168 21.0025 27.8815C16.2449 26.8652 15.1671 19.7481 15.1558 19.6707C15.1022 19.3015 14.8766 18.9802 14.5485 18.8048C14.217 18.6317 13.8273 18.6191 13.4912 18.7854C13.2418 18.9062 7.36756 21.8911 7.02578 33.8103C7.00183 34.2067 7.00073 34.6032 7.00073 35.0008C7.00073 46.5793 16.4214 56 28 56C39.5785 56 48.9992 46.5793 48.9992 35.0008C48.9992 34.4198 48.9594 33.8775 48.9194 33.3364ZM28 53.6668C24.14 53.6668 21.0002 50.3219 21.0002 46.2102C21.0002 46.0701 20.9991 45.9288 21.0093 45.7556C21.056 44.0217 21.3853 42.838 21.7465 42.0507C22.4232 43.5045 23.6342 44.8408 25.5984 44.8408C26.2432 44.8408 26.765 44.319 26.765 43.6741C26.765 42.013 26.7993 40.0968 27.2128 38.3673C27.5808 36.8327 28.4603 35.2023 29.5746 33.8945C30.0701 35.592 31.0363 36.9659 31.9796 38.3069C33.3297 40.2255 34.7253 42.209 34.9703 45.5915C34.985 45.792 34.9999 45.9936 34.9999 46.2101C34.9997 50.3219 31.8599 53.6668 28 53.6668ZM35.3729 52.1425C36.5838 50.4911 37.333 48.4498 37.333 46.2102C37.333 45.9357 37.316 45.6804 37.2817 45.2031C37.0049 41.3945 35.3495 39.0407 33.8878 36.9639C32.6426 35.1957 31.5683 33.668 31.5683 31.501C31.5683 31.0578 31.3176 30.6534 30.9211 30.4563C30.527 30.258 30.0508 30.3025 29.6987 30.5703C27.4612 32.2609 25.595 35.1069 24.9434 37.8241C24.6107 39.2174 24.4945 40.7247 24.4535 41.9642C23.6446 41.0938 23.3939 39.4806 23.3917 39.4589C23.3393 39.0841 23.1092 38.7571 22.7731 38.5829C22.4393 38.4097 22.0395 38.4052 21.7034 38.5783C21.4094 38.7287 18.8267 40.2098 18.6786 45.6578C18.6683 45.8424 18.6672 46.0269 18.6672 46.2103C18.6672 48.4499 19.4164 50.4912 20.6274 52.1426C13.9925 49.2776 9.33427 42.6751 9.33427 35.001C9.33427 34.6512 9.33318 34.3026 9.35702 33.9141C9.5575 26.9211 11.7951 23.4532 13.2557 21.9232C14.2741 25.5688 16.9423 30.3345 22.1671 30.3345C22.8119 30.3345 23.3338 29.8126 23.3338 29.1678C23.3338 25.2635 23.4215 20.7519 24.4651 16.6209C25.6499 11.9407 28.8957 6.88685 32.8137 3.46562C33.4642 8.46256 36.1859 12.1265 39.0467 15.976C42.4475 20.5536 45.9634 25.2873 46.5523 32.9525L46.5923 33.5107C46.6287 33.9961 46.6663 34.4803 46.6663 35.0009C46.666 42.675 42.0077 49.2775 35.3729 52.1425Z" fill="white"/>
</svg>
